<svg width="69" height="16" viewBox="0 0 69 16" fill="none" xmlns="http://www.w3.org/2000/svg">
<path d="M3.66 0.96V15H0.24V0.96H3.66ZM5.45844 9.42C5.45844 8.26 5.69177 7.24667 6.15844 6.38C6.63844 5.51333 7.29844 4.84667 8.13844 4.38C8.99177 3.91333 9.9651 3.68 11.0584 3.68C12.4584 3.68 13.6251 4.04667 14.5584 4.78C15.5051 5.51333 16.1251 6.54667 16.4184 7.88H12.7784C12.4718 7.02667 11.8784 6.6 10.9984 6.6C10.3718 6.6 9.87177 6.84667 9.49844 7.34C9.1251 7.82 8.93844 8.51333 8.93844 9.42C8.93844 10.3267 9.1251 11.0267 9.49844 11.52C9.87177 12 10.3718 12.24 10.9984 12.24C11.8784 12.24 12.4718 11.8133 12.7784 10.96H16.4184C16.1251 12.2667 15.5051 13.2933 14.5584 14.04C13.6118 14.7867 12.4451 15.16 11.0584 15.16C9.9651 15.16 8.99177 14.9267 8.13844 14.46C7.29844 13.9933 6.63844 13.3267 6.15844 12.46C5.69177 11.5933 5.45844 10.58 5.45844 9.42ZM17.5678 9.4C17.5678 8.25333 17.7811 7.24667 18.2078 6.38C18.6478 5.51333 19.2411 4.84667 19.9878 4.38C20.7345 3.91333 21.5678 3.68 22.4878 3.68C23.2745 3.68 23.9611 3.84 24.5478 4.16C25.1478 4.48 25.6078 4.9 25.9278 5.42V3.84H29.3478V15H25.9278V13.42C25.5945 13.94 25.1278 14.36 24.5278 14.68C23.9411 15 23.2545 15.16 22.4678 15.16C21.5611 15.16 20.7345 14.9267 19.9878 14.46C19.2411 13.98 18.6478 13.3067 18.2078 12.44C17.7811 11.56 17.5678 10.5467 17.5678 9.4ZM25.9278 9.42C25.9278 8.56667 25.6878 7.89333 25.2078 7.4C24.7411 6.90667 24.1678 6.66 23.4878 6.66C22.8078 6.66 22.2278 6.90667 21.7478 7.4C21.2811 7.88 21.0478 8.54667 21.0478 9.4C21.0478 10.2533 21.2811 10.9333 21.7478 11.44C22.2278 11.9333 22.8078 12.18 23.4878 12.18C24.1678 12.18 24.7411 11.9333 25.2078 11.44C25.6878 10.9467 25.9278 10.2733 25.9278 9.42ZM35.242 5.7C35.642 5.08667 36.142 4.60667 36.742 4.26C37.342 3.9 38.0087 3.72 38.742 3.72V7.34H37.802C36.9487 7.34 36.3087 7.52667 35.882 7.9C35.4554 8.26 35.242 8.9 35.242 9.82V15H31.822V3.84H35.242V5.7ZM51.3967 3.84V15H47.9767V13.48C47.6301 13.9733 47.1567 14.3733 46.5567 14.68C45.9701 14.9733 45.3167 15.12 44.5967 15.12C43.7434 15.12 42.9901 14.9333 42.3367 14.56C41.6834 14.1733 41.1767 13.62 40.8167 12.9C40.4567 12.18 40.2767 11.3333 40.2767 10.36V3.84H43.6767V9.9C43.6767 10.6467 43.8701 11.2267 44.2567 11.64C44.6434 12.0533 45.1634 12.26 45.8167 12.26C46.4834 12.26 47.0101 12.0533 47.3967 11.64C47.7834 11.2267 47.9767 10.6467 47.9767 9.9V3.84H51.3967ZM58.3933 15.16C57.4199 15.16 56.5533 14.9933 55.7933 14.66C55.0333 14.3267 54.4333 13.8733 53.9933 13.3C53.5533 12.7133 53.3066 12.06 53.2533 11.34H56.6333C56.6733 11.7267 56.8533 12.04 57.1733 12.28C57.4933 12.52 57.8866 12.64 58.3533 12.64C58.7799 12.64 59.1066 12.56 59.3333 12.4C59.5733 12.2267 59.6933 12.0067 59.6933 11.74C59.6933 11.42 59.5266 11.1867 59.1933 11.04C58.8599 10.88 58.3199 10.7067 57.5733 10.52C56.7733 10.3333 56.1066 10.14 55.5733 9.94C55.0399 9.72667 54.5799 9.4 54.1933 8.96C53.8066 8.50667 53.6133 7.9 53.6133 7.14C53.6133 6.5 53.7866 5.92 54.1333 5.4C54.4933 4.86667 55.0133 4.44667 55.6933 4.14C56.3866 3.83333 57.2066 3.68 58.1533 3.68C59.5533 3.68 60.6533 4.02667 61.4533 4.72C62.2666 5.41333 62.7333 6.33333 62.8533 7.48H59.6933C59.6399 7.09333 59.4666 6.78667 59.1733 6.56C58.8933 6.33333 58.5199 6.22 58.0533 6.22C57.6533 6.22 57.3466 6.3 57.1333 6.46C56.9199 6.60667 56.8133 6.81333 56.8133 7.08C56.8133 7.4 56.9799 7.64 57.3133 7.8C57.6599 7.96 58.1933 8.12 58.9133 8.28C59.7399 8.49333 60.4133 8.70667 60.9333 8.92C61.4533 9.12 61.9066 9.45333 62.2933 9.92C62.6933 10.3733 62.8999 10.9867 62.9133 11.76C62.9133 12.4133 62.7266 13 62.3533 13.52C61.9933 14.0267 61.4666 14.4267 60.7733 14.72C60.0933 15.0133 59.2999 15.16 58.3933 15.16ZM66.6056 15.16C66.0056 15.16 65.5123 14.9867 65.1256 14.64C64.7523 14.28 64.5656 13.84 64.5656 13.32C64.5656 12.7867 64.7523 12.34 65.1256 11.98C65.5123 11.62 66.0056 11.44 66.6056 11.44C67.1923 11.44 67.6723 11.62 68.0456 11.98C68.4323 12.34 68.6256 12.7867 68.6256 13.32C68.6256 13.84 68.4323 14.28 68.0456 14.64C67.6723 14.9867 67.1923 15.16 66.6056 15.16Z" fill="white"/>
</svg>
